# xmcd CD database file
#
# Track frame offsets:
#	150
#	18068
#	37274
#	53058
#	67689
#	80392
#	106537
#	125851
#	141521
#	154545
#	167887
#	178860
#	196580
#
# Disc length: 2923 seconds
#
# Revision: 0
# Processed by: cddbd v1.5.2PL0 Copyright (c) Steve Scherf et al.
# Submitted via: CDex 1.70beta2
#
DISCID=a40b690d
DTITLE=Mumble Finger - Nasty Bits Of Funk
DYEAR=2000
DGENRE=Blues
TTITLE0=Pass The Salt
TTITLE1=Rental
TTITLE2=Sue On The Side
TTITLE3=Exactly Like You
TTITLE4=Wrecking Ball
TTITLE5=Lonesome Killin' Time
TTITLE6=Sing That Song
TTITLE7=Bummed
TTITLE8=Sho' Is Hot
TTITLE9=Sold Me Out
TTITLE10=Half Empty
TTITLE11=You Make Me Feel Like Dancing
TTITLE12=I Want You To Stay
EXTD=YEAR: 2000
EXTT0=
EXTT1=
EXTT2=
EXTT3=
EXTT4=
EXTT5=
EXTT6=
EXTT7=
EXTT8=
EXTT9=
EXTT10=
EXTT11=
EXTT12=
PLAYORDER=
